<svg width="44" height="44" viewBox="0 0 44 44" fill="none" xmlns="http://www.w3.org/2000/svg">
<g filter="url(#filter0_d_54_471)">
<rect x="2" y="1" width="40" height="40" rx="8" fill="white" shape-rendering="crispEdges"/>
<path d="M22 11C22.1797 11 22.3594 11.0391 22.5235 11.1133L29.8789 14.2344C30.7383 14.5977 31.3789 15.4453 31.375 16.4688C31.3555 20.3438 29.7617 27.4336 23.0313 30.6562C22.3789 30.9688 21.6211 30.9688 20.9688 30.6562C14.2383 27.4336 12.6445 20.3438 12.625 16.4688C12.6211 15.4453 13.2617 14.5977 14.1211 14.2344L21.4805 11.1133C21.6406 11.0391 21.8203 11 22 11ZM22 13.6094V28.375C27.3906 25.7656 28.8399 19.9883 28.875 16.5234L22 13.6094Z" fill="#0A5FB4"/>
</g>
<defs>
<filter id="filter0_d_54_471" x="0" y="0" width="44" height="44" filterUnits="userSpaceOnUse" color-interpolation-filters="sRGB">
<feFlood flood-opacity="0" result="BackgroundImageFix"/>
<feColorMatrix in="SourceAlpha" type="matrix" values="0 0 0 0 0 0 0 0 0 0 0 0 0 0 0 0 0 0 127 0" result="hardAlpha"/>
<feOffset dy="1"/>
<feGaussianBlur stdDeviation="1"/>
<feComposite in2="hardAlpha" operator="out"/>
<feColorMatrix type="matrix" values="0 0 0 0 0 0 0 0 0 0 0 0 0 0 0 0 0 0 0.05 0"/>
<feBlend mode="normal" in2="BackgroundImageFix" result="effect1_dropShadow_54_471"/>
<feBlend mode="normal" in="SourceGraphic" in2="effect1_dropShadow_54_471" result="shape"/>
</filter>
</defs>
</svg>
